<?xml version="1.0" standalone="no"?>
<!DOCTYPE svg PUBLIC "-//W3C//DTD SVG 20010904//EN"
 "http://www.w3.org/TR/2001/REC-SVG-20010904/DTD/svg10.dtd">
<svg version="1.0" xmlns="http://www.w3.org/2000/svg"
 width="500.000000pt" height="500.000000pt" viewBox="0 0 500.000000 500.000000"
 preserveAspectRatio="xMidYMid meet">
<metadata>
Created by potrace 1.11, written by Peter Selinger 2001-2013
</metadata>
<g transform="translate(0.000000,500.000000) scale(0.100000,-0.100000)"
fill="#000000" stroke="none">
<path d="M2045 4443 c-507 -22 -889 -165 -1150 -431 -156 -158 -250 -347 -285
-567 -14 -87 -14 -297 -1 -390 44 -301 199 -531 481 -715 159 -103 433 -218
890 -372 430 -144 520 -208 520 -366 0 -102 -66 -198 -173 -253 -163 -84 -588
-81 -867 6 -113 36 -325 139 -429 208 -46 32 -90 57 -96 57 -23 0 -129 -86
-196 -158 -105 -113 -141 -205 -140 -357 0 -155 51 -269 174 -387 153 -149
427 -261 767 -313 165 -26 596 -32 790 -11 326 35 604 122 808 252 29 19 55
34 58 34 4 0 31 -22 61 -50 195 -179 553 -237 851 -138 237 78 409 263 489
525 24 80 27 103 27 258 1 148 -2 180 -22 250 -86 301 -300 507 -589 567 -83
17 -121 19 -248 14 -82 -3 -164 -8 -182 -12 -27 -5 -32 -3 -38 18 -17 54 -120
190 -210 276 -121 116 -267 213 -470 312 -182 89 -335 147 -650 246 -354 111
-449 170 -462 288 -14 121 85 223 267 273 91 25 481 25 617 0 180 -34 375 -98
500 -167 l55 -29 40 32 c50 40 129 136 162 197 14 25 32 73 41 106 19 70 21
214 5 275 -66 248 -358 430 -790 493 -103 15 -431 37 -500 34 -19 -1 -66 -3
-105 -5z"/>
</g>
</svg>
